<svg width="1440" height="900" viewBox="0 0 1440 900" xmlns="http://www.w3.org/2000/svg">
  <style>
    @import url('https://fonts.googleapis.com/css2?family=Inter:wght@400;600&amp;display=swap');

    * { font-family: 'Inter', system-ui, sans-serif; }

    .bg-surface { fill: #FFFFFF; }
    .bg-surface-variant { fill: #F9FAFB; }
    .bg-primary { fill: #FF5722; }
    .bg-primary-container { fill: #FFF3E0; }

    .text-primary { fill: #FF5722; }
    .text-on-surface { fill: #111827; }
    .text-on-surface-variant { fill: #6B7280; }
    .text-on-primary { fill: #FFFFFF; }

    .stroke-outline { stroke: #E5E7EB; }
    .stroke-primary { stroke: #FF5722; }

    .elevation-1 { filter: drop-shadow(0 1px 3px rgba(0,0,0,0.1)); }

    .font-headline { font-size: 32px; font-weight: 600; }
    .font-title { font-size: 22px; font-weight: 600; }
    .font-body { font-size: 16px; font-weight: 400; }
    .font-body-sm { font-size: 14px; font-weight: 400; }
    .font-label { font-size: 14px; font-weight: 600; }

    .trend-up { fill: #10B981; }
    .trend-down { fill: #EF4444; }
    .trend-neutral { fill: #9CA3AF; }

    .badge { font-size: 12px; font-weight: 600; }
  </style>

  <!-- Background -->
  <rect width="1440" height="900" class="bg-surface-variant"/>

  <!-- Sidebar -->
  <g id="sidebar">
    <rect width="240" height="900" class="bg-surface-variant"/>
    <line x1="240" y1="0" x2="240" y2="900" class="stroke-outline" stroke-width="1"/>

    <g transform="translate(24, 24)">
      <circle cx="16" cy="16" r="16" class="bg-primary"/>
      <text x="16" y="22" text-anchor="middle" class="text-on-primary font-label">SEO</text>
      <text x="44" y="22" class="text-on-surface font-title">Dashboard</text>
    </g>

    <g id="nav-items" transform="translate(0, 96)">
      <g transform="translate(0, 0)">
        <rect x="16" y="0" width="208" height="48" rx="12" fill="transparent"/>
        <text x="36" y="29" class="text-on-surface-variant font-body">📊</text>
        <text x="60" y="29" class="text-on-surface-variant font-body">Overview</text>
      </g>

      <g class="nav-item active" transform="translate(0, 56)">
        <rect x="16" y="0" width="208" height="48" rx="12" class="bg-primary-container"/>
        <text x="36" y="29" class="text-primary font-body">🔍</text>
        <text x="60" y="29" class="text-primary font-body">Keywords</text>
        <rect x="180" y="16" width="32" height="20" rx="10" class="bg-primary"/>
        <text x="196" y="30" text-anchor="middle" class="text-on-primary badge">1.2K</text>
      </g>

      <g transform="translate(0, 112)">
        <rect x="16" y="0" width="208" height="48" rx="12" fill="transparent"/>
        <text x="36" y="29" class="text-on-surface-variant font-body">🔗</text>
        <text x="60" y="29" class="text-on-surface-variant font-body">Backlinks</text>
      </g>

      <g transform="translate(0, 168)">
        <text x="36" y="29" class="text-on-surface-variant font-body">⚙️</text>
        <text x="60" y="29" class="text-on-surface-variant font-body">Site Audit</text>
      </g>

      <g transform="translate(0, 224)">
        <text x="36" y="29" class="text-on-surface-variant font-body">📈</text>
        <text x="60" y="29" class="text-on-surface-variant font-body">Rank Tracking</text>
      </g>

      <g transform="translate(0, 280)">
        <text x="36" y="29" class="text-on-surface-variant font-body">🎯</text>
        <text x="60" y="29" class="text-on-surface-variant font-body">Competitors</text>
      </g>

      <g transform="translate(0, 336)">
        <text x="36" y="29" class="text-on-surface-variant font-body">📊</text>
        <text x="60" y="29" class="text-on-surface-variant font-body">Traffic</text>
      </g>
    </g>
  </g>

  <!-- Header -->
  <g id="header">
    <rect x="240" width="1200" height="64" class="bg-surface"/>
    <line x1="240" y1="64" x2="1440" y2="64" class="stroke-outline" stroke-width="1"/>

    <g transform="translate(268, 16)">
      <rect width="400" height="32" rx="16" class="stroke-outline" fill="white" stroke-width="1"/>
      <text x="16" y="21" class="text-on-surface-variant font-body-sm">🔍 Search keywords...</text>
    </g>

    <g transform="translate(1310, 16)">
      <circle cx="16" cy="16" r="16" class="bg-surface-variant"/>
      <text x="16" y="22" text-anchor="middle" class="text-on-surface-variant font-label">🔔</text>
      <circle cx="68" cy="16" r="16" class="bg-primary-container"/>
      <text x="68" y="22" text-anchor="middle" class="text-primary font-label">JD</text>
    </g>
  </g>

  <!-- Main Content -->
  <g id="main-content" transform="translate(240, 64)">
    <rect width="1200" height="836" fill="#FFFFFF"/>

    <!-- Page Header -->
    <g transform="translate(24, 24)">
      <text class="text-on-surface font-headline">Keyword Analysis</text>
      <text y="32" class="text-on-surface-variant font-body">Track and analyze your keyword rankings</text>

      <g transform="translate(900, 0)">
        <rect width="120" height="40" rx="12" class="stroke-outline bg-surface" stroke-width="1"/>
        <text x="60" y="26" text-anchor="middle" class="text-primary font-label">Export</text>

        <g transform="translate(136, 0)">
          <rect width="120" height="40" rx="12" class="bg-primary elevation-1"/>
          <text x="60" y="26" text-anchor="middle" class="text-on-primary font-label">Track Keyword</text>
        </g>
      </g>
    </g>

    <!-- Summary Metrics -->
    <g transform="translate(24, 112)">
      <g>
        <text class="text-on-surface-variant font-body-sm">Total Keywords</text>
        <text y="24" class="text-on-surface font-title">1,247</text>
      </g>

      <g transform="translate(200, 0)">
        <text class="text-on-surface-variant font-body-sm">Improved</text>
        <text y="24" class="trend-up font-title">↑ 156</text>
      </g>

      <g transform="translate(380, 0)">
        <text class="text-on-surface-variant font-body-sm">Declined</text>
        <text y="24" class="trend-down font-title">↓ 89</text>
      </g>

      <g transform="translate(560, 0)">
        <text class="text-on-surface-variant font-body-sm">Top 3</text>
        <text y="24" class="text-on-surface font-title">45</text>
      </g>

      <g transform="translate(700, 0)">
        <text class="text-on-surface-variant font-body-sm">Top 10</text>
        <text y="24" class="text-on-surface font-title">198</text>
      </g>
    </g>

    <!-- Filters Bar -->
    <g transform="translate(24, 184)">
      <rect width="1152" height="56" rx="12" class="bg-surface-variant"/>

      <!-- Position Filter -->
      <g transform="translate(16, 12)">
        <rect width="140" height="32" rx="8" class="bg-surface stroke-outline" stroke-width="1"/>
        <text x="12" y="21" class="text-on-surface font-body-sm">Position</text>
        <text x="120" y="21" class="text-on-surface-variant font-body-sm">▼</text>
      </g>

      <!-- Volume Filter -->
      <g transform="translate(172, 12)">
        <rect width="140" height="32" rx="8" class="bg-surface stroke-outline" stroke-width="1"/>
        <text x="12" y="21" class="text-on-surface font-body-sm">Volume</text>
        <text x="120" y="21" class="text-on-surface-variant font-body-sm">▼</text>
      </g>

      <!-- Difficulty Filter -->
      <g transform="translate(328, 12)">
        <rect width="140" height="32" rx="8" class="bg-surface stroke-outline" stroke-width="1"/>
        <text x="12" y="21" class="text-on-surface font-body-sm">Difficulty</text>
        <text x="110" y="21" class="text-on-surface-variant font-body-sm">▼</text>
      </g>

      <!-- Intent Filter -->
      <g transform="translate(484, 12)">
        <rect width="140" height="32" rx="8" class="bg-surface stroke-outline" stroke-width="1"/>
        <text x="12" y="21" class="text-on-surface font-body-sm">Intent</text>
        <text x="120" y="21" class="text-on-surface-variant font-body-sm">▼</text>
      </g>

      <!-- Clear Filters -->
      <g transform="translate(960, 12)">
        <rect width="100" height="32" rx="8" fill="transparent"/>
        <text x="12" y="21" class="text-primary font-body-sm">Clear All</text>
      </g>

      <!-- More Filters -->
      <g transform="translate(1076, 12)">
        <rect width="60" height="32" rx="8" class="bg-primary"/>
        <text x="30" y="21" text-anchor="middle" class="text-on-primary font-body-sm">Filters</text>
      </g>
    </g>

    <!-- Data Table -->
    <g transform="translate(24, 260)">
      <rect width="1152" height="528" rx="16" class="bg-surface stroke-outline elevation-1" stroke-width="1"/>

      <!-- Table Header -->
      <rect width="1152" height="48" rx="16" class="bg-surface-variant"/>
      <line x1="0" y1="48" x2="1152" y2="48" class="stroke-outline" stroke-width="1"/>

      <g transform="translate(0, 30)">
        <rect x="16" width="20" height="20" rx="4" class="stroke-outline bg-surface" stroke-width="2"/>
        <text x="60" class="text-on-surface font-label">Keyword</text>
        <text x="360" class="text-on-surface font-label">Position ↓</text>
        <text x="460" class="text-on-surface font-label">Change</text>
        <text x="560" class="text-on-surface font-label">Volume</text>
        <text x="680" class="text-on-surface font-label">Difficulty</text>
        <text x="800" class="text-on-surface font-label">Traffic</text>
        <text x="920" class="text-on-surface font-label">URL</text>
        <text x="1080" class="text-on-surface font-label">Actions</text>
      </g>

      <!-- Table Rows -->
      <g transform="translate(0, 48)">
        <!-- Row 1 -->
        <g>
          <rect width="1152" height="60" fill="white"/>
          <line y1="60" x2="1152" y2="60" class="stroke-outline" stroke-width="1"/>
          <rect x="16" y="20" width="20" height="20" rx="4" class="stroke-outline bg-surface" stroke-width="2"/>
          <text x="60" y="38" class="text-on-surface font-body">seo tools for small business</text>
          <text x="360" y="38" class="text-on-surface font-body">5</text>
          <text x="460" y="38" class="trend-up font-body">↑ 3</text>
          <text x="560" y="38" class="text-on-surface font-body">12.5K</text>
          <text x="680" y="38" class="text-on-surface font-body">45</text>
          <text x="800" y="38" class="text-on-surface font-body">450</text>
          <text x="920" y="38" class="text-on-surface-variant font-body-sm">/seo-tools</text>
          <text x="1080" y="38" class="text-on-surface-variant font-body">⋮</text>
        </g>

        <!-- Row 2 -->
        <g transform="translate(0, 60)">
          <rect width="1152" height="60" fill="white"/>
          <line y1="60" x2="1152" y2="60" class="stroke-outline" stroke-width="1"/>
          <rect x="16" y="20" width="20" height="20" rx="4" class="stroke-outline bg-surface" stroke-width="2"/>
          <text x="60" y="38" class="text-on-surface font-body">keyword research tool</text>
          <text x="360" y="38" class="text-on-surface font-body">8</text>
          <text x="460" y="38" class="trend-down font-body">↓ 2</text>
          <text x="560" y="38" class="text-on-surface font-body">8.2K</text>
          <text x="680" y="38" class="text-on-surface font-body">62</text>
          <text x="800" y="38" class="text-on-surface font-body">280</text>
          <text x="920" y="38" class="text-on-surface-variant font-body-sm">/keyword-tool</text>
          <text x="1080" y="38" class="text-on-surface-variant font-body">⋮</text>
        </g>

        <!-- Row 3 -->
        <g transform="translate(0, 120)">
          <rect width="1152" height="60" fill="white"/>
          <line y1="60" x2="1152" y2="60" class="stroke-outline" stroke-width="1"/>
          <rect x="16" y="20" width="20" height="20" rx="4" class="stroke-outline bg-surface" stroke-width="2"/>
          <text x="60" y="38" class="text-on-surface font-body">backlink checker</text>
          <text x="360" y="38" class="text-on-surface font-body">12</text>
          <text x="460" y="38" class="trend-neutral font-body">→</text>
          <text x="560" y="38" class="text-on-surface font-body">15.8K</text>
          <text x="680" y="38" class="text-on-surface font-body">58</text>
          <text x="800" y="38" class="text-on-surface font-body">320</text>
          <text x="920" y="38" class="text-on-surface-variant font-body-sm">/backlinks</text>
          <text x="1080" y="38" class="text-on-surface-variant font-body">⋮</text>
        </g>

        <!-- Row 4 -->
        <g transform="translate(0, 180)">
          <rect width="1152" height="60" fill="white"/>
          <line y1="60" x2="1152" y2="60" class="stroke-outline" stroke-width="1"/>
          <rect x="16" y="20" width="20" height="20" rx="4" class="stroke-outline bg-surface" stroke-width="2"/>
          <text x="60" y="38" class="text-on-surface font-body">site audit tool</text>
          <text x="360" y="38" class="text-on-surface font-body">3</text>
          <text x="460" y="38" class="trend-up font-body">↑ 5</text>
          <text x="560" y="38" class="text-on-surface font-body">6.4K</text>
          <text x="680" y="38" class="text-on-surface font-body">41</text>
          <text x="800" y="38" class="text-on-surface font-body">520</text>
          <text x="920" y="38" class="text-on-surface-variant font-body-sm">/audit</text>
          <text x="1080" y="38" class="text-on-surface-variant font-body">⋮</text>
        </g>

        <!-- Row 5 -->
        <g transform="translate(0, 240)">
          <rect width="1152" height="60" fill="white"/>
          <line y1="60" x2="1152" y2="60" class="stroke-outline" stroke-width="1"/>
          <rect x="16" y="20" width="20" height="20" rx="4" class="stroke-outline bg-surface" stroke-width="2"/>
          <text x="60" y="38" class="text-on-surface font-body">rank tracker software</text>
          <text x="360" y="38" class="text-on-surface font-body">15</text>
          <text x="460" y="38" class="trend-up font-body">↑ 1</text>
          <text x="560" y="38" class="text-on-surface font-body">4.9K</text>
          <text x="680" y="38" class="text-on-surface font-body">55</text>
          <text x="800" y="38" class="text-on-surface font-body">180</text>
          <text x="920" y="38" class="text-on-surface-variant font-body-sm">/rank-tracking</text>
          <text x="1080" y="38" class="text-on-surface-variant font-body">⋮</text>
        </g>

        <!-- Row 6 -->
        <g transform="translate(0, 300)">
          <rect width="1152" height="60" fill="white"/>
          <line y1="60" x2="1152" y2="60" class="stroke-outline" stroke-width="1"/>
          <rect x="16" y="20" width="20" height="20" rx="4" class="stroke-outline bg-surface" stroke-width="2"/>
          <text x="60" y="38" class="text-on-surface font-body">competitor analysis seo</text>
          <text x="360" y="38" class="text-on-surface font-body">7</text>
          <text x="460" y="38" class="trend-down font-body">↓ 1</text>
          <text x="560" y="38" class="text-on-surface font-body">9.3K</text>
          <text x="680" y="38" class="text-on-surface font-body">67</text>
          <text x="800" y="38" class="text-on-surface font-body">340</text>
          <text x="920" y="38" class="text-on-surface-variant font-body-sm">/competitors</text>
          <text x="1080" y="38" class="text-on-surface-variant font-body">⋮</text>
        </g>

        <!-- Row 7 -->
        <g transform="translate(0, 360)">
          <rect width="1152" height="60" fill="white"/>
          <line y1="60" x2="1152" y2="60" class="stroke-outline" stroke-width="1"/>
          <rect x="16" y="20" width="20" height="20" rx="4" class="stroke-outline bg-surface" stroke-width="2"/>
          <text x="60" y="38" class="text-on-surface font-body">organic traffic analysis</text>
          <text x="360" y="38" class="text-on-surface font-body">11</text>
          <text x="460" y="38" class="trend-neutral font-body">→</text>
          <text x="560" y="38" class="text-on-surface font-body">7.1K</text>
          <text x="680" y="38" class="text-on-surface font-body">52</text>
          <text x="800" y="38" class="text-on-surface font-body">240</text>
          <text x="920" y="38" class="text-on-surface-variant font-body-sm">/traffic</text>
          <text x="1080" y="38" class="text-on-surface-variant font-body">⋮</text>
        </g>

        <!-- Row 8 -->
        <g transform="translate(0, 420)">
          <rect width="1152" height="60" fill="white"/>
          <rect x="16" y="20" width="20" height="20" rx="4" class="stroke-outline bg-surface" stroke-width="2"/>
          <text x="60" y="38" class="text-on-surface font-body">seo reporting dashboard</text>
          <text x="360" y="38" class="text-on-surface font-body">9</text>
          <text x="460" y="38" class="trend-up font-body">↑ 4</text>
          <text x="560" y="38" class="text-on-surface font-body">5.6K</text>
          <text x="680" y="38" class="text-on-surface font-body">48</text>
          <text x="800" y="38" class="text-on-surface font-body">290</text>
          <text x="920" y="38" class="text-on-surface-variant font-body-sm">/reports</text>
          <text x="1080" y="38" class="text-on-surface-variant font-body">⋮</text>
        </g>
      </g>

      <!-- Pagination -->
      <g transform="translate(0, 488)">
        <line y1="0" x2="1152" y2="0" class="stroke-outline" stroke-width="1"/>

        <g transform="translate(900, 16)">
          <text class="text-on-surface-variant font-body-sm">Rows per page:</text>
          <text x="120" class="text-on-surface font-body-sm">10 ▼</text>

          <text x="170" class="text-on-surface-variant font-body-sm">1-10 of 1,247</text>

          <!-- Prev Button -->
          <rect x="280" y="-8" width="32" height="32" rx="8" class="stroke-outline bg-surface" stroke-width="1" opacity="0.5"/>
          <text x="296" y="13" text-anchor="middle" class="text-on-surface-variant font-body">‹</text>

          <!-- Next Button -->
          <rect x="320" y="-8" width="32" height="32" rx="8" class="stroke-outline bg-surface" stroke-width="1"/>
          <text x="336" y="13" text-anchor="middle" class="text-on-surface font-body">›</text>
        </g>
      </g>
    </g>
  </g>
</svg>