<svg width="1440" height="900" viewBox="0 0 1440 900" xmlns="http://www.w3.org/2000/svg">
  <style>
    @import url('https://fonts.googleapis.com/css2?family=Inter:wght@400;600&amp;display=swap');
    * { font-family: 'Inter', system-ui, sans-serif; }
    .bg-surface { fill: #FFFFFF; }
    .bg-surface-variant { fill: #F9FAFB; }
    .bg-primary { fill: #FF5722; }
    .bg-primary-container { fill: #FFF3E0; }
    .text-primary { fill: #FF5722; }
    .text-on-surface { fill: #111827; }
    .text-on-surface-variant { fill: #6B7280; }
    .text-on-primary { fill: #FFFFFF; }
    .stroke-outline { stroke: #E5E7EB; }
    .stroke-primary { stroke: #FF5722; }
    .elevation-1 { filter: drop-shadow(0 1px 3px rgba(0,0,0,0.1)); }
    .font-display-sm { font-size: 36px; font-weight: 600; }
    .font-headline { font-size: 32px; font-weight: 600; }
    .font-title { font-size: 22px; font-weight: 600; }
    .font-body { font-size: 16px; font-weight: 400; }
    .font-body-sm { font-size: 14px; font-weight: 400; }
    .font-label { font-size: 14px; font-weight: 600; }
  </style>

  <rect width="1440" height="900" class="bg-surface-variant"/>

  <g id="sidebar">
    <rect width="240" height="900" class="bg-surface-variant"/>
    <line x1="240" y1="0" x2="240" y2="900" class="stroke-outline" stroke-width="1"/>
    <g transform="translate(24, 24)">
      <circle cx="16" cy="16" r="16" class="bg-primary"/>
      <text x="16" y="22" text-anchor="middle" class="text-on-primary font-label">SEO</text>
      <text x="44" y="22" class="text-on-surface font-title">Dashboard</text>
    </g>
    <g transform="translate(0, 96)">
      <g><text x="36" y="29" class="text-on-surface-variant font-body">📊</text><text x="60" y="29" class="text-on-surface-variant font-body">Overview</text></g>
      <g transform="translate(0, 56)"><text x="36" y="29" class="text-on-surface-variant font-body">🔍</text><text x="60" y="29" class="text-on-surface-variant font-body">Keywords</text></g>
      <g transform="translate(0, 112)"><text x="36" y="29" class="text-on-surface-variant font-body">🔗</text><text x="60" y="29" class="text-on-surface-variant font-body">Backlinks</text></g>
      <g transform="translate(0, 168)"><text x="36" y="29" class="text-on-surface-variant font-body">⚙️</text><text x="60" y="29" class="text-on-surface-variant font-body">Site Audit</text></g>
      <g transform="translate(0, 224)"><text x="36" y="29" class="text-on-surface-variant font-body">📈</text><text x="60" y="29" class="text-on-surface-variant font-body">Rank Tracking</text></g>
      <g transform="translate(0, 280)" class="nav-item active">
        <rect x="16" y="0" width="208" height="48" rx="12" class="bg-primary-container"/>
        <text x="36" y="29" class="text-primary font-body">🎯</text>
        <text x="60" y="29" class="text-primary font-body">Competitors</text>
      </g>
      <g transform="translate(0, 336)"><text x="36" y="29" class="text-on-surface-variant font-body">📊</text><text x="60" y="29" class="text-on-surface-variant font-body">Traffic</text></g>
    </g>
  </g>

  <g id="header">
    <rect x="240" width="1200" height="64" class="bg-surface"/>
    <line x1="240" y1="64" x2="1440" y2="64" class="stroke-outline" stroke-width="1"/>
    <g transform="translate(268, 16)">
      <rect width="400" height="32" rx="16" class="stroke-outline" fill="white" stroke-width="1"/>
      <text x="16" y="21" class="text-on-surface-variant font-body-sm">🔍 Search competitors...</text>
    </g>
    <g transform="translate(1310, 16)">
      <circle cx="16" cy="16" r="16" class="bg-surface-variant"/>
      <text x="16" y="22" text-anchor="middle" class="text-on-surface-variant font-label">🔔</text>
      <circle cx="68" cy="16" r="16" class="bg-primary-container"/>
      <text x="68" y="22" text-anchor="middle" class="text-primary font-label">JD</text>
    </g>
  </g>

  <g id="main-content" transform="translate(240, 64)">
    <rect width="1200" height="836" fill="#FFFFFF"/>

    <g transform="translate(24, 24)">
      <text class="text-on-surface font-headline">Competitor Analysis</text>
      <text y="32" class="text-on-surface-variant font-body">Compare your SEO performance against competitors</text>
      <g transform="translate(900, 0)">
        <rect width="120" height="40" rx="12" class="stroke-outline bg-surface" stroke-width="1"/>
        <text x="60" y="26" text-anchor="middle" class="text-primary font-label">Export</text>
        <g transform="translate(136, 0)">
          <rect width="120" height="40" rx="12" class="bg-primary elevation-1"/>
          <text x="60" y="26" text-anchor="middle" class="text-on-primary font-label">Add Competitor</text>
        </g>
      </g>
    </g>

    <!-- Competitor Selector -->
    <g transform="translate(24, 112)">
      <rect width="1152" height="56" rx="12" class="bg-surface-variant"/>
      <text x="16" y="34" class="text-on-surface-variant font-body-sm">Comparing:</text>

      <g transform="translate(110, 12)">
        <rect width="180" height="32" rx="8" class="bg-primary"/>
        <text x="16" y="21" class="text-on-primary font-body-sm">yoursite.com</text>
        <text x="160" y="21" class="text-on-primary font-body-sm">✓</text>
      </g>

      <g transform="translate(310, 12)">
        <rect width="180" height="32" rx="8" class="bg-surface stroke-outline" stroke-width="1"/>
        <text x="16" y="21" class="text-on-surface font-body-sm">competitor-a.com</text>
      </g>

      <g transform="translate(510, 12)">
        <rect width="180" height="32" rx="8" class="bg-surface stroke-outline" stroke-width="1"/>
        <text x="16" y="21" class="text-on-surface font-body-sm">competitor-b.com</text>
      </g>

      <g transform="translate(710, 12)">
        <rect width="180" height="32" rx="8" class="bg-surface stroke-outline" stroke-width="1"/>
        <text x="16" y="21" class="text-on-surface-variant font-body-sm">+ Add competitor</text>
      </g>
    </g>

    <!-- Comparison Cards -->
    <g transform="translate(24, 192)">
      <g class="elevation-1">
        <rect width="368" height="180" rx="16" class="bg-surface stroke-primary" stroke-width="2"/>
        <text x="20" y="32" class="text-on-surface font-title">yoursite.com</text>
        <rect x="20" y="44" width="80" height="24" rx="12" class="bg-primary-container"/>
        <text x="60" y="60" text-anchor="middle" class="text-primary font-label" font-size="12">YOUR SITE</text>

        <g transform="translate(20, 88)">
          <text class="text-on-surface-variant font-body-sm">Domain Rating</text>
          <text x="280" class="text-on-surface font-title">68</text>
        </g>
        <g transform="translate(20, 116)">
          <text class="text-on-surface-variant font-body-sm">Organic Keywords</text>
          <text x="280" class="text-on-surface font-title">1.2K</text>
        </g>
        <g transform="translate(20, 144)">
          <text class="text-on-surface-variant font-body-sm">Organic Traffic</text>
          <text x="280" class="text-on-surface font-title">15.2K</text>
        </g>
      </g>

      <g transform="translate(392, 0)" class="elevation-1">
        <rect width="368" height="180" rx="16" class="bg-surface stroke-outline" stroke-width="1"/>
        <text x="20" y="32" class="text-on-surface font-title">competitor-a.com</text>

        <g transform="translate(20, 68)">
          <text class="text-on-surface-variant font-body-sm">Domain Rating</text>
          <text x="280" class="text-on-surface font-title">72</text>
          <text x="320" fill="#10B981" class="font-body-sm">+4</text>
        </g>
        <g transform="translate(20, 96)">
          <text class="text-on-surface-variant font-body-sm">Organic Keywords</text>
          <text x="280" class="text-on-surface font-title">2.5K</text>
          <text x="320" fill="#10B981" class="font-body-sm">+1.3K</text>
        </g>
        <g transform="translate(20, 124)">
          <text class="text-on-surface-variant font-body-sm">Organic Traffic</text>
          <text x="280" class="text-on-surface font-title">28.5K</text>
          <text x="320" fill="#10B981" class="font-body-sm">+13.3K</text>
        </g>
        <g transform="translate(20, 152)">
          <text class="text-on-surface-variant font-body-sm">Backlinks</text>
          <text x="280" class="text-on-surface font-title">89K</text>
        </g>
      </g>

      <g transform="translate(784, 0)" class="elevation-1">
        <rect width="368" height="180" rx="16" class="bg-surface stroke-outline" stroke-width="1"/>
        <text x="20" y="32" class="text-on-surface font-title">competitor-b.com</text>

        <g transform="translate(20, 68)">
          <text class="text-on-surface-variant font-body-sm">Domain Rating</text>
          <text x="280" class="text-on-surface font-title">65</text>
          <text x="320" fill="#EF4444" class="font-body-sm">-3</text>
        </g>
        <g transform="translate(20, 96)">
          <text class="text-on-surface-variant font-body-sm">Organic Keywords</text>
          <text x="280" class="text-on-surface font-title">980</text>
          <text x="320" fill="#EF4444" class="font-body-sm">-220</text>
        </g>
        <g transform="translate(20, 124)">
          <text class="text-on-surface-variant font-body-sm">Organic Traffic</text>
          <text x="280" class="text-on-surface font-title">12.1K</text>
          <text x="320" fill="#EF4444" class="font-body-sm">-3.1K</text>
        </g>
        <g transform="translate(20, 152)">
          <text class="text-on-surface-variant font-body-sm">Backlinks</text>
          <text x="280" class="text-on-surface font-title">34K</text>
        </g>
      </g>
    </g>

    <!-- Traffic Trend Chart -->
    <g transform="translate(24, 396)">
      <rect width="752" height="280" rx="16" class="bg-surface stroke-outline elevation-1" stroke-width="1"/>
      <text x="20" y="36" class="text-on-surface font-title">Organic Traffic Comparison</text>

      <g transform="translate(40, 80)">
        <line x1="0" y1="0" x2="680" y2="0" class="stroke-outline" stroke-width="1" opacity="0.3"/>
        <line x1="0" y1="40" x2="680" y2="40" class="stroke-outline" stroke-width="1" opacity="0.3"/>
        <line x1="0" y1="80" x2="680" y2="80" class="stroke-outline" stroke-width="1" opacity="0.3"/>
        <line x1="0" y1="120" x2="680" y2="120" class="stroke-outline" stroke-width="1" opacity="0.3"/>
        <line x1="0" y1="160" x2="680" y2="160" class="stroke-outline" stroke-width="1" opacity="0.3"/>

        <polyline points="0,120 80,115 160,110 240,105 320,100 400,95 480,90 560,85 640,80 680,75"
                  fill="none" class="stroke-primary" stroke-width="3"/>
        <polyline points="0,80 80,75 160,72 240,68 320,65 400,60 480,55 560,50 640,45 680,40"
                  fill="none" stroke="#10B981" stroke-width="3"/>
        <polyline points="0,140 80,138 160,135 240,133 320,130 400,128 480,125 560,123 640,120 680,118"
                  fill="none" stroke="#9CA3AF" stroke-width="3"/>

        <g transform="translate(0, -40)">
          <text class="text-on-surface-variant font-body-sm">30K</text>
          <text y="40" class="text-on-surface-variant font-body-sm">25K</text>
          <text y="80" class="text-on-surface-variant font-body-sm">20K</text>
          <text y="120" class="text-on-surface-variant font-body-sm">15K</text>
          <text y="160" class="text-on-surface-variant font-body-sm">10K</text>
        </g>
      </g>

      <g transform="translate(40, 260)">
        <circle r="4" class="bg-primary"/>
        <text x="12" y="5" class="text-on-surface-variant font-body-sm">yoursite.com</text>
        <circle cx="140" r="4" fill="#10B981"/>
        <text x="152" y="5" class="text-on-surface-variant font-body-sm">competitor-a.com</text>
        <circle cx="300" r="4" fill="#9CA3AF"/>
        <text x="312" y="5" class="text-on-surface-variant font-body-sm">competitor-b.com</text>
      </g>
    </g>

    <!-- Keyword Gap Analysis -->
    <g transform="translate(800, 396)">
      <rect width="376" height="280" rx="16" class="bg-surface stroke-outline elevation-1" stroke-width="1"/>
      <text x="20" y="36" class="text-on-surface font-title">Keyword Gap</text>

      <g transform="translate(32, 72)">
        <rect width="312" height="60" rx="12" fill="#FFF3E0"/>
        <text x="20" y="26" class="text-on-surface-variant font-body-sm">Keywords they rank for</text>
        <text x="20" y="46" class="text-on-surface font-title">1,245</text>
        <text x="240" y="36" class="text-primary font-body">View Gap →</text>
      </g>

      <g transform="translate(32, 148)">
        <rect width="312" height="60" rx="12" fill="#D1FAE5"/>
        <text x="20" y="26" class="text-on-surface-variant font-body-sm">Keywords you rank for</text>
        <text x="20" y="46" class="text-on-surface font-title">456</text>
        <text x="240" y="36" fill="#10B981" class="font-body">Analyze →</text>
      </g>

      <g transform="translate(32, 224)">
        <rect width="312" height="32" rx="8" class="bg-surface-variant"/>
        <text x="20" y="21" class="text-on-surface-variant font-body-sm">Shared keywords: 789</text>
      </g>
    </g>

    <!-- Top Competitors Table -->
    <g transform="translate(24, 700)">
      <rect width="1152" height="112" rx="16" class="bg-surface stroke-outline elevation-1" stroke-width="1"/>
      <text x="20" y="36" class="text-on-surface font-title">Discover More Competitors</text>

      <g transform="translate(20, 60)">
        <text class="text-primary font-body">competitor-c.com</text>
        <text x="280" class="text-on-surface-variant font-body-sm">Common keywords: 456</text>
        <text x="520" class="text-on-surface-variant font-body-sm">DR: 78</text>
        <text x="620" class="text-on-surface-variant font-body-sm">Traffic: 45K</text>
        <text x="920" class="text-primary font-body-sm">Add to comparison →</text>
      </g>
    </g>
  </g>
</svg>